<?xml version="1.0" encoding="UTF-8" standalone="no"?>
<!-- Generator: Adobe Illustrator 22.0.1, SVG Export Plug-In . SVG Version: 6.00 Build 0)  -->

<svg
   xmlns:dc="http://purl.org/dc/elements/1.1/"
   xmlns:cc="http://creativecommons.org/ns#"
   xmlns:rdf="http://www.w3.org/1999/02/22-rdf-syntax-ns#"
   xmlns:svg="http://www.w3.org/2000/svg"
   xmlns="http://www.w3.org/2000/svg"
   xmlns:sodipodi="http://sodipodi.sourceforge.net/DTD/sodipodi-0.dtd"
   xmlns:inkscape="http://www.inkscape.org/namespaces/inkscape"
   version="1.1"
   id="Ebene_1"
   x="0px"
   y="0px"
   viewBox="0 0 498.9 498.9"
   style="enable-background:new 0 0 498.9 498.9;"
   xml:space="preserve"
   sodipodi:docname="connectGGJ.svg"
   inkscape:version="0.92.0 r15299"><metadata
     id="metadata23"><rdf:RDF><cc:Work
         rdf:about=""><dc:format>image/svg+xml</dc:format><dc:type
           rdf:resource="http://purl.org/dc/dcmitype/StillImage" /><dc:title></dc:title></cc:Work></rdf:RDF></metadata><defs
     id="defs21" /><sodipodi:namedview
     pagecolor="#ffffff"
     bordercolor="#666666"
     borderopacity="1"
     objecttolerance="10"
     gridtolerance="10"
     guidetolerance="10"
     inkscape:pageopacity="0"
     inkscape:pageshadow="2"
     inkscape:window-width="1920"
     inkscape:window-height="1058"
     id="namedview19"
     showgrid="false"
     inkscape:zoom="1.2600079"
     inkscape:cx="235.73577"
     inkscape:cy="228.1024"
     inkscape:window-x="-8"
     inkscape:window-y="-8"
     inkscape:window-maximized="1"
     inkscape:current-layer="Ebene_1" /><style
     type="text/css"
     id="style10">
	.st0{fill:#6B6D76;}
	.st1{fill:#D1D1D1;}
</style><path
     style="opacity:0.5;fill:#000000;paint-order:stroke fill markers"
     d="M 255.554,81.442415 A 178.57031,178.57031 0 0 0 76.9837,260.01274 178.57031,178.57031 0 0 0 255.554,438.58306 178.57031,178.57031 0 0 0 434.12431,260.01274 178.57031,178.57031 0 0 0 255.554,81.442415 Z m 0,27.777345 A 150.79271,150.79271 0 0 1 406.34697,260.01274 150.79271,150.79271 0 0 1 255.554,410.80571 150.79271,150.79271 0 0 1 104.76103,260.01274 150.79271,150.79271 0 0 1 255.554,109.21976 Z"
     id="path3703"
     inkscape:connector-curvature="0"
     inkscape:export-xdpi="68.813225"
     inkscape:export-ydpi="68.813225" /><circle
     r="178.57031"
     cy="260.01273"
     cx="255.554"
     id="circle4513"
     style="opacity:0.212;fill:#000000;paint-order:stroke fill markers"
     inkscape:export-xdpi="68.813225"
     inkscape:export-ydpi="68.813225" /><circle
     style="opacity:0.723;fill:#000000;paint-order:stroke fill markers"
     id="path4517"
     cx="255.554"
     cy="260.01273"
     r="51.983803"
     inkscape:export-xdpi="68.813225"
     inkscape:export-ydpi="68.813225" /><path
     style="opacity:0.907;fill:#000000;stroke-width:0.69465649;paint-order:stroke fill markers"
     d="m 255.55401,223.90238 a 36.110886,36.110886 0 0 0 -36.11133,36.10938 36.110886,36.110886 0 0 0 36.11133,36.11133 36.110886,36.110886 0 0 0 36.11133,-36.11133 36.110886,36.110886 0 0 0 -36.11133,-36.10938 z m 0,23.41211 a 12.698334,12.698334 0 0 1 12.69922,12.69727 12.698334,12.698334 0 0 1 -12.69922,12.69922 12.698334,12.698334 0 0 1 -12.69726,-12.69922 12.698334,12.698334 0 0 1 12.69726,-12.69727 z"
     id="circle4519"
     inkscape:connector-curvature="0"
     inkscape:export-xdpi="68.813225"
     inkscape:export-ydpi="68.813225" /><path
     inkscape:connector-curvature="0"
     id="path4526"
     d="M 255.554,151.28325 A 108.72948,108.72948 0 0 0 146.82452,260.01274 108.72948,108.72948 0 0 0 255.554,368.74222 108.72948,108.72948 0 0 0 364.28349,260.01274 108.72948,108.72948 0 0 0 255.554,151.28325 Z m 0,16.91332 A 91.816009,91.816009 0 0 1 347.37017,260.01274 91.816009,91.816009 0 0 1 255.554,351.8289 91.816009,91.816009 0 0 1 163.73784,260.01274 91.816009,91.816009 0 0 1 255.554,168.19657 Z"
     style="opacity:0.794;fill:#000000;stroke-width:0.60888892;paint-order:stroke fill markers"
     inkscape:export-xdpi="68.813225"
     inkscape:export-ydpi="68.813225" /></svg>