<?xml version="1.0" encoding="UTF-8" standalone="no"?>
<!-- Generator: Adobe Illustrator 22.0.1, SVG Export Plug-In . SVG Version: 6.00 Build 0)  -->

<svg
   xmlns:dc="http://purl.org/dc/elements/1.1/"
   xmlns:cc="http://creativecommons.org/ns#"
   xmlns:rdf="http://www.w3.org/1999/02/22-rdf-syntax-ns#"
   xmlns:svg="http://www.w3.org/2000/svg"
   xmlns="http://www.w3.org/2000/svg"
   xmlns:sodipodi="http://sodipodi.sourceforge.net/DTD/sodipodi-0.dtd"
   xmlns:inkscape="http://www.inkscape.org/namespaces/inkscape"
   version="1.1"
   id="Ebene_1"
   x="0px"
   y="0px"
   viewBox="0 0 498.9 498.9"
   style="enable-background:new 0 0 498.9 498.9;"
   xml:space="preserve"
   sodipodi:docname="dataGGJ.svg"
   inkscape:version="0.92.0 r15299"><metadata
     id="metadata23"><rdf:RDF><cc:Work
         rdf:about=""><dc:format>image/svg+xml</dc:format><dc:type
           rdf:resource="http://purl.org/dc/dcmitype/StillImage" /><dc:title></dc:title></cc:Work></rdf:RDF></metadata><defs
     id="defs21" /><sodipodi:namedview
     pagecolor="#ffffff"
     bordercolor="#666666"
     borderopacity="1"
     objecttolerance="10"
     gridtolerance="10"
     guidetolerance="10"
     inkscape:pageopacity="0"
     inkscape:pageshadow="2"
     inkscape:window-width="1920"
     inkscape:window-height="1058"
     id="namedview19"
     showgrid="false"
     inkscape:zoom="1.2600079"
     inkscape:cx="235.73577"
     inkscape:cy="228.1024"
     inkscape:window-x="-8"
     inkscape:window-y="-8"
     inkscape:window-maximized="1"
     inkscape:current-layer="Ebene_1" /><style
     type="text/css"
     id="style10">
	.st0{fill:#6B6D76;}
	.st1{fill:#D1D1D1;}
</style><rect
     ry="23.809374"
     y="99.695831"
     x="61.110565"
     height="207.9352"
     width="395.23566"
     id="rect4530"
     style="opacity:0.5;fill:#000000;paint-order:stroke fill markers" /><path
     style="opacity:0.5;fill:#000000;paint-order:stroke fill markers"
     d="m 84.918821,99.695655 c -13.190393,10e-7 -23.808593,10.620155 -23.808593,23.810545 v 160.31641 c 0,13.19039 10.6182,23.80859 23.808593,23.80859 H 432.53601 c 13.19039,0 23.81055,-10.6182 23.81055,-23.80859 V 123.5062 c 0,-13.19039 -10.62016,-23.810545 -23.81055,-23.810545 z M 97.190306,117.15659 H 420.26452 c 10.97522,0 19.8125,8.83533 19.8125,19.81055 v 133.39258 c 0,10.97521 -8.83728,19.8125 -19.8125,19.8125 H 97.190306 c -10.975212,0 -19.810547,-8.83729 -19.810547,-19.8125 V 136.96714 c 0,-10.97522 8.835335,-19.81055 19.810547,-19.81055 z"
     id="rect4528"
     inkscape:connector-curvature="0" /><path
     style="opacity:0.5;fill:#000000;stroke-width:0.19216222;paint-order:stroke fill markers"
     d="m 85.919922,229.29905 c -0.553795,0 -1,0.44425 -1,0.99805 v 6.73242 c 0,0.34533 0.184419,0.63305 0.449219,0.8125 -0.06038,0.31415 0.01361,0.64837 0.257812,0.89258 l 21.595707,21.5957 c 0.39159,0.39159 1.02051,0.39159 1.41211,0 l 5.32226,-5.32031 c 0.39159,-0.3916 0.39159,-1.02247 0,-1.41407 L 98.388672,238.02756 H 431.53711 c 0.55379,0 1,-0.44425 1,-0.99804 v -6.73242 c 0,-0.5538 -0.44621,-0.99805 -1,-0.99805 z"
     id="rect4540"
     inkscape:connector-curvature="0" /><path
     style="opacity:0.5;fill:#000000;stroke-width:0.19216222;paint-order:stroke fill markers"
     d="m 409.52734,146.70277 c -0.25552,0 -0.51123,0.0972 -0.70703,0.29297 L 403.5,152.31606 c -0.39159,0.39159 -0.39159,1.02247 0,1.41406 l 15.56836,15.56836 H 85.919922 c -0.553795,0 -1,0.44425 -1,0.99805 v 6.73242 c 0,0.55379 0.446205,0.99804 1,0.99804 H 431.53711 c 0.55379,0 1,-0.44425 1,-0.99804 v -6.73242 c 0,-0.34534 -0.18442,-0.63306 -0.44922,-0.8125 0.0604,-0.31415 -0.0136,-0.64838 -0.25781,-0.89258 l -21.5957,-21.59571 c -0.1958,-0.19579 -0.45151,-0.29297 -0.70704,-0.29297 z"
     id="rect4550"
     inkscape:connector-curvature="0" /></svg>